<?xml version="1.0" encoding="iso-8859-1"?>
<!-- Generator: Adobe Illustrator 18.1.1, SVG Export Plug-In . SVG Version: 6.00 Build 0)  -->
<svg version="1.1" id="Capa_1" xmlns="http://www.w3.org/2000/svg" xmlns:xlink="http://www.w3.org/1999/xlink" x="0px" y="0px"
	 viewBox="0 0 42.908 42.908" style="enable-background:new 0 0 42.908 42.908;" xml:space="preserve">
<g>
	<g id="b174_recipes">
		<rect x="28.616" y="17.081" width="0.914" height="7.934"/>
		<rect x="22.514" y="17.999" width="7.936" height="0.914"/>
		<rect x="23.81" y="19.293" width="7.935" height="0.917"/>
		<path d="M33.154,13.416c0.037-0.383,0.057-0.771,0.057-1.166C33.21,5.488,27.726,0,20.96,0C14.231,0,8.773,5.426,8.711,12.141
			c-3.295,1.627-5.563,5.017-5.563,8.941c0,4.146,2.53,7.699,6.132,9.203v12.623h24.499V31.154c3.504-1.367,5.982-4.773,5.982-8.758
			C39.76,18.176,36.981,14.605,33.154,13.416z M30.963,22.717c-2.306,2.307-5.247,3.219-7.11,2.354l-0.36,0.357l1.105,1.109
			l0.379-0.379l5.948,5.949l-2.699,2.697l-5.945-5.947l0.377-0.379l-1.104-1.105l-0.577,0.576l0.6,0.596l-6.435,6.434l-2.591-2.59
			l6.434-6.432l0.599,0.598l0.575-0.576l-2.68-2.678c-1.479,1.477-2.59,1.295-2.59,1.295L9.275,18.98l5.828-5.826l5.611,5.611
			c0,0,0.284,1.012-1.295,2.59l2.682,2.684l0.359-0.361c-0.862-1.863,0.048-4.805,2.352-7.109c2.682-2.684,6.234-3.479,7.932-1.779
			C34.44,16.484,33.646,20.037,30.963,22.717z"/>
	</g>
	<g id="Capa_1_42_">
	</g>
</g>
<g>
</g>
<g>
</g>
<g>
</g>
<g>
</g>
<g>
</g>
<g>
</g>
<g>
</g>
<g>
</g>
<g>
</g>
<g>
</g>
<g>
</g>
<g>
</g>
<g>
</g>
<g>
</g>
<g>
</g>
</svg>
